<svg class="icon" viewBox="0 0 1024 1024" xmlns="http://www.w3.org/2000/svg" width="128" height="128"><defs><style/></defs><path d="M590.77 571.077h324.922c15.754 0 29.539-13.785 29.539-29.539v-59.076c0-15.754-13.785-29.539-29.539-29.539H590.77c-11.815 0-19.692-7.877-19.692-19.692V108.308c0-15.754-13.785-29.539-29.539-29.539h-59.076c-15.754 0-29.539 13.785-29.539 29.539V433.23c0 11.815-7.877 19.692-19.692 19.692H108.308c-15.754 0-29.539 13.785-29.539 29.539v59.076c0 15.754 13.785 29.539 29.539 29.539H433.23c11.815 0 19.692 7.877 19.692 19.692v324.923c0 15.754 13.785 29.539 29.539 29.539h59.076c15.754 0 29.539-13.785 29.539-29.539V590.77c0-11.815 7.877-19.692 19.692-19.692z"/></svg>