<svg class="icon" viewBox="0 0 1024 1024" xmlns="http://www.w3.org/2000/svg" width="128" height="128"><defs><style/></defs><path d="M767.987 751.989V623.995c0-17.673 14.326-32 31.999-32s31.999 14.327 31.999 32v127.994h127.993c17.672 0 31.999 14.326 31.999 31.999s-14.327 31.998-32 31.998H831.986v127.995c0 17.672-14.327 31.998-31.999 31.998s-31.999-14.326-31.999-31.998V815.985H639.994c-17.672 0-31.999-14.326-31.999-31.998s14.327-32 32-32h127.992zm-161.434-69.533l-.116.07c-20.714-23.24-30.44-51.803-30.44-90.531 0-28.668 9.048-53.575 25.28-78.742 5.132-7.959 10.572-15.405 18.233-25.275-3.816 4.917 13.59-17.343 17.306-22.292 24.74-32.948 35.176-58.474 35.176-97.68V272.01c0-93.106-66.784-159.992-159.993-159.992-93.209 0-159.992 66.886-159.992 159.992v95.995c0 39.207 10.436 64.733 35.176 97.681 3.678 4.898 20.763 26.75 17.481 22.517 7.57 9.757 12.965 17.152 18.059 25.05 16.231 25.166 25.28 50.074 25.28 78.742 0 88.693-50.977 123.938-168.495 164.215a8615.764 8615.764 0 0 1-19.304 6.575 1957.252 1957.252 0 0 0-18.834 6.5c-36.76 12.936-60.701 23.56-79.426 36.003-14.718 9.78-29.499 26.514-44.34 50.198-4.693 7.488-2.427 17.361 5.06 22.053a16.001 16.001 0 0 0 8.496 2.442h412.838c17.672 0 31.999 14.326 31.999 31.999s-14.327 31.998-32 31.998H82.766c-26.509 0-47.997-21.489-47.997-47.997 0-3.232.326-6.456.974-9.622 11.691-57.13 41.951-101.92 90.782-134.37 96.3-63.997 257.482-63.997 257.482-159.992 0-63.997-95.996-95.69-95.996-223.99v-95.995c0-128.257 95.24-223.99 223.988-223.99s223.99 95.733 223.99 223.99v95.996c0 128.3-95.995 159.991-95.995 223.989 0 22.996 9.187 40.482 24.49 54.66.014.01.025.022.038.034.215.2.432.398.65.596 2.817 2.832 4.836 4.968 6.028 6.427 5.93 7.256-.243 26.761-10.868 34.575-10.625 7.814-31.135 11.416-46.88.806-.608-.409-2.907-2.621-6.898-6.639z"/></svg>