<?xml version="1.0" standalone="no"?><!DOCTYPE svg PUBLIC "-//W3C//DTD SVG 1.1//EN" "http://www.w3.org/Graphics/SVG/1.1/DTD/svg11.dtd"><svg t="1557114561650" class="icon" style="" viewBox="0 0 1024 1024" version="1.1" xmlns="http://www.w3.org/2000/svg" p-id="4825" xmlns:xlink="http://www.w3.org/1999/xlink" width="200" height="200"><defs><style type="text/css"></style></defs><path d="M898.27555555 748.86940445c-48.5888 0-48.5888-180.62677333-48.5888-180.62677334v-124.19982222c0-158.03050667-103.64928-290.74545778-242.9485511-335.92888889v-14.08c0-50.86094222-42.11939555-90.36913778-97.18101334-90.36913778-55.06389333 0-97.17987555 39.50819555-97.17987556 90.36913778v14.08c-132.83214222 42.34467555-242.95310222 177.78119111-242.95310222 335.92888889v124.19982222s0 177.78801778-48.59335111 180.62677334c-27.64344889 0-46.51349333 17.74023111-48.41585777 41.2410311v7.55939556c2.03207111 23.65667555 23.77614222 41.56757333 48.41585777 41.56757334H898.27555555c25.88672 0 48.59335111-19.75637333 48.59335112-45.18343112 0-25.43388445-22.70663111-45.18456889-48.59335112-45.18456888zM655.32472889 884.42083555H363.78624c0 76.17763555 64.82602667 135.43651555 145.77095111 135.43651556s145.76753778-59.25888 145.76753778-135.43651556z" p-id="4826"></path></svg>