<?xml version="1.0" standalone="no"?><!DOCTYPE svg PUBLIC "-//W3C//DTD SVG 1.1//EN" "http://www.w3.org/Graphics/SVG/1.1/DTD/svg11.dtd"><svg t="1558594088805" class="icon" style="" viewBox="0 0 1025 1024" version="1.1" xmlns="http://www.w3.org/2000/svg" p-id="987" xmlns:xlink="http://www.w3.org/1999/xlink" width="128.125" height="128"><defs><style type="text/css"></style></defs><path d="M240.448 1020.8H234.624a228.288 228.288 0 0 1-162.688-68.352l-0.128-0.128C26.752 909.28 0.48 849.344 0 787.776a235.104 235.104 0 0 1 71.808-164.672l152.544-152.288c8.416-8 19.2-12.288 30.912-12.544 11.072 0 22.016 4.544 29.856 12.544l0.16 0.128c8.128 7.456 12.736 18.24 12.736 29.856s-4.64 22.784-12.896 30.656L133.504 686.784a144.864 144.864 0 0 0-43.424 103.648 147.616 147.616 0 0 0 147.456 147.488h0.8a145.792 145.792 0 0 0 103.776-42.912l152.288-152.8a42.88 42.88 0 0 1 29.984-12.544h0.928c22.784 0 41.856 18.784 42.208 41.728v1.184c0 11.072-4.544 22.016-12.512 29.984l-151.904 152.96c-42.624 43.04-102.432 64.896-162.656 65.28z m532.672-455.776c-17.472 0-33.184-10.24-39.84-26.112a44.16 44.16 0 0 1 9.184-47.168l152.8-152.288c57.28-58.08 56.512-152.032-1.6-209.44a146.624 146.624 0 0 0-46.496-31.04 155.648 155.648 0 0 0-56.64-10.656 145.792 145.792 0 0 0-103.776 42.912l-152.416 152.256c-8 8-18.656 12.544-29.856 12.544h-1.888c-10.912 0-21.44-4.544-28.896-12.384l-0.128-0.16a42.752 42.752 0 0 1-12.544-29.984 41.92 41.92 0 0 1 12.544-30.784l152.288-152.288a231.52 231.52 0 0 1 165.056-68.48c62.208 0 120.704 24.256 164.672 68.224 44.096 44.096 68.352 102.592 68.48 164.8s-24.128 120.8-68.224 164.768l-152.8 152.96a43.104 43.104 0 0 1-29.92 12.32z m0 0" p-id="988"></path><path d="M401.568 666.272a42.784 42.784 0 0 1-42.528-43.168v-0.288a39.328 39.328 0 0 1 12.384-29.728l221.024-221.024c7.424-8.128 18.24-12.768 29.856-12.768s22.784 4.672 30.624 12.928c8 8 12.416 18.656 12.416 29.984s-4.416 21.984-12.416 29.984l-220.64 220.768c-8.8 8.384-19.968 13.312-30.72 13.312z m0 0" p-id="989"></path></svg>