<svg class="icon" viewBox="0 0 1024 1024" xmlns="http://www.w3.org/2000/svg" width="128" height="128"><defs><style/></defs><path d="M134.095 256c13.465 0 24.381-9.551 24.381-21.333 0-11.782-10.916-21.334-24.38-21.334H36.57c-13.465 0-24.38 9.552-24.38 21.334S23.105 256 36.57 256h97.524zM134.095 533.333c13.465 0 24.381-9.55 24.381-21.333 0-11.782-10.916-21.333-24.38-21.333H36.57c-13.465 0-24.38 9.55-24.38 21.333 0 11.782 10.915 21.333 24.38 21.333h97.524zM134.095 810.667c13.465 0 24.381-9.552 24.381-21.334S147.56 768 134.096 768H36.57c-13.465 0-24.38 9.551-24.38 21.333 0 11.782 10.915 21.334 24.38 21.334h97.524zM987.429 256c13.465 0 24.38-9.551 24.38-21.333 0-11.782-10.915-21.334-24.38-21.334H280.38c-13.465 0-24.381 9.552-24.381 21.334S266.916 256 280.381 256h707.048zM993.524 533.333c13.465 0 24.38-9.55 24.38-21.333 0-11.782-10.915-21.333-24.38-21.333H286.476c-13.465 0-24.38 9.55-24.38 21.333 0 11.782 10.915 21.333 24.38 21.333h707.048zM996.571 810.667c13.466 0 24.381-9.552 24.381-21.334S1010.037 768 996.572 768H289.523c-13.465 0-24.381 9.551-24.381 21.333 0 11.782 10.916 21.334 24.38 21.334h707.048z"/></svg>