<?xml version="1.0" standalone="no"?><!DOCTYPE svg PUBLIC "-//W3C//DTD SVG 1.1//EN" "http://www.w3.org/Graphics/SVG/1.1/DTD/svg11.dtd"><svg t="1557114593219" class="icon" style="" viewBox="0 0 1024 1024" version="1.1" xmlns="http://www.w3.org/2000/svg" p-id="5152" xmlns:xlink="http://www.w3.org/1999/xlink" width="200" height="200"><defs><style type="text/css"></style></defs><path d="M887.33546667 284.97066667c0-37.79946667-30.75093333-68.55146667-68.54933334-68.55146667l-80.2144 0L738.57173333 61.11146667c0-16.43306667-13.32266667-29.75253333-29.7536-29.75253334-16.43093333 0-29.7536 13.31946667-29.7536 29.75253334l0 155.30773333L351.78773333 216.4192 351.78773333 64.67093333c0-16.43306667-13.31946667-29.7536-29.75253333-29.7536-16.43306667 0-29.7536 13.31946667-29.7536 29.7536l0 151.74933334-78.72746667 0c-37.79733333 0-68.54933333 30.752-68.54933333 68.55146666l0 76.9408c0 0.12586667 0.01813333 0.2464 0.0192 0.37226667-0.00106667 0.12586667-0.0192 0.2464-0.0192 0.37226667 0 194.39466667 150.2208 354.34133333 340.6688 369.904l0 239.28213333c0 16.43093333 13.31946667 29.7536 29.75253333 29.7536 16.43306667 0 29.75146667-13.3216 29.75146667-29.7536L545.1776 732.6912c191.15733333-14.84693333 342.15573333-175.13493333 342.15573333-370.03626667 0-0.12586667-0.01813333-0.2464-0.0192-0.37226666 0.00106667-0.12586667 0.0192-0.2464 0.0192-0.37226667L887.33546667 284.97066667 887.33546667 284.97066667z" p-id="5153"></path></svg>