<svg class="icon" viewBox="0 0 1024 1024" xmlns="http://www.w3.org/2000/svg" width="200" height="200"><defs><style/></defs><path d="M704 128c-8.384-49.536-50.56-64-92.8-64H407.872c-42.24 0-79.424 14.464-87.872 64v64h384v-64zM204.8 412.416v473.216c0 48.512 23.488 74.368 76.8 74.368h460.8c53.376 0 76.8-25.856 76.8-74.368V412.416c53.952 0 76.8-29.76 76.8-78.208C896 285.696 872.512 256 819.2 256H204.8c-53.312 0-76.8 29.696-76.8 78.208 0 48.448 23.488 78.208 76.8 78.208zM576 387.968c0-1.472.576-2.56.704-3.968h62.656c.128 1.408.64 2.496.64 3.968v414.464c0 39.424-64 39.424-64 0V387.968zm-192 0c0-1.472.448-2.56.64-3.968h59.136c.128 1.408.704 2.496.704 3.968v414.464c0 39.424-60.48 39.424-60.48 0V387.968z"/></svg>