<?xml version="1.0" standalone="no"?><!DOCTYPE svg PUBLIC "-//W3C//DTD SVG 1.1//EN" "http://www.w3.org/Graphics/SVG/1.1/DTD/svg11.dtd"><svg t="1558431914504" class="icon" style="" viewBox="0 0 1024 1024" version="1.1" xmlns="http://www.w3.org/2000/svg" p-id="2149" xmlns:xlink="http://www.w3.org/1999/xlink" width="200" height="200"><defs><style type="text/css"></style></defs><path d="M967.0144 717.4144h-64.8192v-168.448h-345.6V438.272h285.5936a19.2512 19.2512 0 0 0 19.2-19.2512v-317.44a19.3024 19.3024 0 0 0-19.2-19.6608H189.44a19.3024 19.3024 0 0 0-19.2 19.2512v317.44A19.3024 19.3024 0 0 0 189.44 438.272h285.5936v110.6944h-345.6v168.448H64.6144a9.6256 9.6256 0 0 0-9.5744 9.6256v211.712a9.6256 9.6256 0 0 0 9.5744 9.6256h211.2a9.6256 9.6256 0 0 0 9.6256-9.6256V727.04a9.6256 9.6256 0 0 0-9.6256-9.6256H210.9952V630.784h264.0384v86.6304H410.2144a9.6256 9.6256 0 0 0-9.5744 9.6256v211.712a9.6256 9.6256 0 0 0 9.5744 9.6256h211.2a9.6256 9.6256 0 0 0 9.5744-9.6256V727.04a9.6256 9.6256 0 0 0-9.5744-9.6256h-64.8192V630.784h263.9872v86.6304h-64.768a9.6256 9.6256 0 0 0-9.6256 9.6256v211.712a9.6256 9.6256 0 0 0 9.6256 9.6256h211.2a9.6256 9.6256 0 0 0 9.5744-9.6256V727.04a9.6256 9.6256 0 0 0-9.5744-9.6256zM208.64 868.1472a3.2768 3.2768 0 0 1-3.2768 3.2768H134.9632a3.2768 3.2768 0 0 1-3.2768-3.2768v-70.6048a3.2768 3.2768 0 0 1 3.2768-3.2768h70.4a3.2768 3.2768 0 0 1 3.2768 3.2768z m345.5488 0a3.2768 3.2768 0 0 1-3.2256 3.2768H480.512a3.2768 3.2768 0 0 1-3.2256-3.2768v-70.6048a3.2256 3.2256 0 0 1 3.2256-3.2768h70.4512a3.2256 3.2256 0 0 1 3.2256 3.2768z m-307.2-506.88V159.1296h537.6v202.1376z m652.7488 506.88a3.2768 3.2768 0 0 1-3.2256 3.2768h-70.4a3.2768 3.2768 0 0 1-3.2256-3.2768v-70.6048a3.2256 3.2256 0 0 1 3.2256-3.2768h70.4512a3.2256 3.2256 0 0 1 3.2256 3.2768zM381.44 212.0704a48.128 48.128 0 1 0 47.9744 48.128 48.0768 48.0768 0 0 0-47.9744-48.128z" fill="#232632" p-id="2150"></path></svg>