<?xml version="1.0" standalone="no"?><!DOCTYPE svg PUBLIC "-//W3C//DTD SVG 1.1//EN" "http://www.w3.org/Graphics/SVG/1.1/DTD/svg11.dtd"><svg t="1558594343304" class="icon" style="" viewBox="0 0 1024 1024" version="1.1" xmlns="http://www.w3.org/2000/svg" p-id="1894" xmlns:xlink="http://www.w3.org/1999/xlink" width="128" height="128"><defs><style type="text/css"></style></defs><path d="M512 1024C228.8 1024 0 793.6 0 512 0 305.6 123.2 120 313.6 40c260.8-108.8 561.6 12.8 670.4 275.2 108.8 259.2-12.8 558.4-272 668.8C649.6 1011.2 580.8 1024 512 1024z m0-899.2C299.2 124.8 124.8 297.6 124.8 512S299.2 899.2 512 899.2 899.2 724.8 899.2 512 726.4 124.8 512 124.8z" p-id="1895"></path><path d="M803.2 867.2c-16 0-32-6.4-44.8-17.6L176 264c-24-24-24-64 0-88s64-24 88 0L848 760c24 24 24 64 0 88-11.2 11.2-27.2 19.2-44.8 19.2z" p-id="1896"></path></svg>