<?xml version="1.0" standalone="no"?><!DOCTYPE svg PUBLIC "-//W3C//DTD SVG 1.1//EN" "http://www.w3.org/Graphics/SVG/1.1/DTD/svg11.dtd"><svg t="1557888074714" class="icon" style="" viewBox="0 0 1024 1024" version="1.1" xmlns="http://www.w3.org/2000/svg" p-id="15703" xmlns:xlink="http://www.w3.org/1999/xlink" width="128" height="128"><defs><style type="text/css"></style></defs><path d="M89.788 835.5c7.239-40.625 33.861-71.297 54.724-104.703 33.729-54.009 69.03-107.037 103.772-160.411 4.527-6.955 9.474-13.662 14.571-20.216 9.893-12.721 21.867-22.151 37.342-28.218 46.625-18.277 94.568-30.412 144.469-34.746 72.042-6.257 143.243-0.909 213.64 15.497 1.701 0.396 3.328 1.11 5.795 1.951-3.031 4.285-5.811 8.316-8.691 12.274-53.648 73.724-107.369 147.395-160.835 221.251-3.678 5.081-8.18 5.993-13.486 6.485-49.327 4.573-94.882 19.839-134.891 49.438-45.714 33.82-77.054 77.623-88.822 134.007-2.035 9.749-1.814 19.968-2.635 29.97H150.322c-2.352-2.613-5.133-4.953-6.991-7.88-20.49-32.287-43.97-63.008-53.542-101.079l-0.001-13.62zM772.294 958.079c-2.509-59.518-29.01-107.586-71.786-147.231-39.966-37.04-87.962-57.463-141.749-64.707-7.719-1.04-15.451-1.974-24.024-3.065 1.15-1.996 1.924-3.673 2.989-5.137 53.026-72.916 106.117-145.784 159.016-218.792 2.941-4.059 5.326-4.222 9.907-3.183 32.901 7.459 55.728 28.134 73.11 55.607 46.28 73.147 92.294 146.461 138.296 219.783 9.852 15.703 18.547 32.148 16.077 51.504-1.254 9.826-2.691 20.537-7.514 28.83-14.779 25.411-31.136 49.91-47.135 74.599-2.813 4.341-6.858 7.882-10.335 11.793l-96.852-0.001z" p-id="15704"></path><path d="M313.759 958.079c-1.014-35.11 12.489-64.74 35.258-90.396 30.403-34.259 69.619-53.288 113.862-61.918 55.188-10.765 108.74-4.981 159.13 20.901 40.444 20.772 71.151 50.923 84.201 95.808 3.326 11.44 3.779 23.715 5.552 35.606l-398.003-0.001zM322.519 261.183c1.028-85.238 55.3-161.726 133.315-186.779 84.735-27.212 175.59 9.467 220.082 88.848 49.914 89.054 24.36 203.573-58.178 260.727-100.423 69.539-237.197 25.49-281.035-90.672-3.881-10.284-7.088-20.98-9.119-31.765-2.504-13.3-3.447-26.893-5.065-40.359z" p-id="15705"></path></svg>