<svg class="icon" viewBox="0 0 1024 1024" xmlns="http://www.w3.org/2000/svg" width="128" height="128"><defs><style/></defs><path d="M1016.705 463.936L879.681 230.4a22.464 22.464 0 0 0-24.448-6.4 22.912 22.912 0 0 0-14.912 20.544v160H576.833v153.6h265.728v156.352a23.104 23.104 0 0 0 14.912 20.544 22.592 22.592 0 0 0 24.512-6.016l138.496-236.096a23.168 23.168 0 0 0-3.776-29.12zM486.913 32.576L16.065 152.704A22.016 22.016 0 0 0 .001 174.08v674.368a22.016 22.016 0 0 0 16.064 21.376l470.848 121.6a21.888 21.888 0 0 0 18.688-4.096 22.272 22.272 0 0 0 8.384-17.28v-916.8a22.144 22.144 0 0 0-8.704-16.768 21.76 21.76 0 0 0-18.368-3.84zm-83.712 704.576l-102.4-28.032-73.024-124.544L177.41 678.4l-85.44-22.08 87.616-160L94.913 340.8l80.32-20.608 50.368 92.096 67.136-122.368 109.504-27.968-128.448 238.784zm280.832-532.096V224a22.272 22.272 0 0 0 6.4 15.616 21.76 21.76 0 0 0 15.488 6.4h63.488a21.76 21.76 0 0 0 15.488-6.4 22.016 22.016 0 0 0 6.4-15.616V118.08a22.016 22.016 0 0 0-6.4-15.616 21.76 21.76 0 0 0-15.488-6.4H525.377v110.528h155.008zm83.968 557.184h-64a21.76 21.76 0 0 0-15.488 6.4 22.272 22.272 0 0 0-6.4 15.616v19.2H527.361v110.528h244.096a21.952 21.952 0 0 0 15.488-6.4 22.272 22.272 0 0 0 6.4-15.616V784.32a22.144 22.144 0 0 0-7.68-17.088 21.632 21.632 0 0 0-17.664-4.992zm0 0"/></svg>