<?xml version="1.0" standalone="no"?><!DOCTYPE svg PUBLIC "-//W3C//DTD SVG 1.1//EN" "http://www.w3.org/Graphics/SVG/1.1/DTD/svg11.dtd"><svg t="1553677354983" class="icon" style="" viewBox="0 0 1024 1024" version="1.1" xmlns="http://www.w3.org/2000/svg" p-id="1955" xmlns:xlink="http://www.w3.org/1999/xlink" width="128" height="128"><defs><style type="text/css"></style></defs><path d="M1016.70528 463.936L879.68128 230.4a22.464 22.464 0 0 0-24.448-6.4 22.912 22.912 0 0 0-14.912 20.544v160H576.83328v153.6h265.728v156.352a23.104 23.104 0 0 0 14.912 20.544 22.592 22.592 0 0 0 24.512-6.016l138.496-236.096a23.168 23.168 0 0 0-3.776-29.12zM486.91328 32.576L16.06528 152.704A22.016 22.016 0 0 0 0.00128 174.08v674.368a22.016 22.016 0 0 0 16.064 21.376l470.848 121.6a21.888 21.888 0 0 0 18.688-4.096 22.272 22.272 0 0 0 8.384-17.28V53.248A22.144 22.144 0 0 0 505.28128 36.48a21.76 21.76 0 0 0-18.368-3.84zM403.20128 737.152l-102.4-28.032-73.024-124.544-50.368 93.824-85.44-22.08 87.616-160-84.672-155.52 80.32-20.608 50.368 92.096L292.73728 289.92l109.504-27.968-128.448 238.784z m280.832-532.096V224a22.272 22.272 0 0 0 6.4 15.616 21.76 21.76 0 0 0 15.488 6.4h63.488a21.76 21.76 0 0 0 15.488-6.4 22.016 22.016 0 0 0 6.4-15.616V118.08a22.016 22.016 0 0 0-6.4-15.616 21.76 21.76 0 0 0-15.488-6.4H525.37728v110.528h155.008zM768.00128 762.24h-64a21.76 21.76 0 0 0-15.488 6.4 22.272 22.272 0 0 0-6.4 15.616v19.2H527.36128v110.528h244.096a21.952 21.952 0 0 0 15.488-6.4 22.272 22.272 0 0 0 6.4-15.616v-107.648a22.144 22.144 0 0 0-7.68-17.088 21.632 21.632 0 0 0-17.664-4.992z m0 0" p-id="1956"></path></svg>