<svg class="icon" viewBox="0 0 1024 1024" xmlns="http://www.w3.org/2000/svg" width="128" height="128"><defs><style/></defs><path d="M992 441.6L601.6 38.4C576 12.8 544 0 512 0c-32 0-64 12.8-89.6 38.4L32 441.6c-38.4 44.8-32 76.8-25.6 96 0 6.4 19.2 38.4 64 38.4H128v313.6c0 70.4 51.2 134.4 121.6 134.4H416V697.6c0-38.4-6.4-57.6 32-57.6h128c38.4 0 32 19.2 32 57.6V1024h166.4c70.4 0 121.6-64 121.6-134.4V576h57.6c44.8 0 64-32 64-38.4 6.4-19.2 12.8-51.2-25.6-96zM953.6 512H832v377.6c0 38.4-25.6 70.4-57.6 70.4H672V697.6c0-70.4-25.6-121.6-96-121.6H448c-70.4 0-96 51.2-96 121.6V960H249.6c-32 0-57.6-38.4-57.6-70.4V512H70.4v-6.4c0-6.4 6.4-12.8 12.8-19.2L473.6 83.2C480 70.4 499.2 64 512 64c12.8 0 32 6.4 44.8 19.2l390.4 403.2c0 6.4 6.4 19.2 6.4 25.6 0-6.4 0 0 0 0z"/></svg>