<?xml version="1.0" standalone="no"?><!DOCTYPE svg PUBLIC "-//W3C//DTD SVG 1.1//EN" "http://www.w3.org/Graphics/SVG/1.1/DTD/svg11.dtd"><svg t="1553658547315" class="icon" style="" viewBox="0 0 1024 1024" version="1.1" xmlns="http://www.w3.org/2000/svg" p-id="2076" xmlns:xlink="http://www.w3.org/1999/xlink" width="128" height="128"><defs><style type="text/css"></style></defs><path d="M583.29664 497.984l137.024-204.8a24.704 24.704 0 0 1 24.448-5.184 20.48 20.48 0 0 1 14.912 17.984v140.16h263.488v134.4h-265.728v136.768a20.608 20.608 0 0 1-14.912 17.984 24.832 24.832 0 0 1-24.512-5.248L579.52064 523.456a18.432 18.432 0 0 1 3.776-25.6zM486.91264 32.64L16.06464 152.768A22.016 22.016 0 0 0 0.00064 174.144v674.304a22.016 22.016 0 0 0 16.064 21.376l470.848 121.6a21.696 21.696 0 0 0 18.624-4.096 22.144 22.144 0 0 0 8.448-17.28V53.248A22.144 22.144 0 0 0 505.28064 36.48a21.76 21.76 0 0 0-18.368-3.84zM403.20064 737.152l-102.4-28.032-73.024-124.544-50.368 93.824-85.44-22.08 87.616-160-84.672-155.52 80.32-20.608 50.368 92.096L292.73664 289.92l109.504-27.968-128.448 238.784z m280.832-532.096V224a22.272 22.272 0 0 0 6.4 15.616 21.76 21.76 0 0 0 15.488 6.4h63.488a21.76 21.76 0 0 0 15.488-6.4 22.016 22.016 0 0 0 6.4-15.616V118.08a22.016 22.016 0 0 0-6.4-15.616 21.76 21.76 0 0 0-15.488-6.4H525.37664v110.528h155.008zM768.00064 762.24h-64a21.76 21.76 0 0 0-15.488 6.4 22.272 22.272 0 0 0-6.4 15.616v19.2H527.36064v110.528h244.096a21.952 21.952 0 0 0 15.488-6.4 22.272 22.272 0 0 0 6.4-15.616v-107.648a22.144 22.144 0 0 0-7.68-17.088 21.632 21.632 0 0 0-17.664-4.992z m0 0" p-id="2077"></path></svg>