<svg class="icon" viewBox="0 0 1024 1024" xmlns="http://www.w3.org/2000/svg" width="128" height="128"><defs><style/></defs><path d="M583.297 497.984l137.024-204.8A24.704 24.704 0 0 1 744.769 288a20.48 20.48 0 0 1 14.912 17.984v140.16h263.488v134.4H757.44v136.768a20.608 20.608 0 0 1-14.912 17.984 24.832 24.832 0 0 1-24.512-5.248L579.52 523.456a18.432 18.432 0 0 1 3.776-25.6zM486.913 32.64L16.065 152.768A22.016 22.016 0 0 0 0 174.144v674.304a22.016 22.016 0 0 0 16.064 21.376l470.848 121.6a21.696 21.696 0 0 0 18.624-4.096 22.144 22.144 0 0 0 8.448-17.28v-916.8a22.144 22.144 0 0 0-8.704-16.768 21.76 21.76 0 0 0-18.368-3.84zM403.2 737.152L300.8 709.12l-73.024-124.544-50.368 93.824-85.44-22.08 87.616-160L94.913 340.8l80.32-20.608 50.368 92.096 67.136-122.368 109.504-27.968-128.448 238.784zm280.832-532.096V224a22.272 22.272 0 0 0 6.4 15.616 21.76 21.76 0 0 0 15.488 6.4h63.488a21.76 21.76 0 0 0 15.488-6.4 22.016 22.016 0 0 0 6.4-15.616V118.08a22.016 22.016 0 0 0-6.4-15.616 21.76 21.76 0 0 0-15.488-6.4H525.377v110.528h155.008zM768 762.24h-64a21.76 21.76 0 0 0-15.488 6.4 22.272 22.272 0 0 0-6.4 15.616v19.2H527.36v110.528h244.096a21.952 21.952 0 0 0 15.488-6.4 22.272 22.272 0 0 0 6.4-15.616V784.32a22.144 22.144 0 0 0-7.68-17.088A21.632 21.632 0 0 0 768 762.24zm0 0"/></svg>