<svg class="icon" viewBox="0 0 1024 1024" xmlns="http://www.w3.org/2000/svg" width="128" height="128"><defs><style/></defs><path d="M934.766 704.122H860.16v-256a326.217 326.217 0 0 0-262.339-309.15 92.648 92.648 0 0 0 11.703-41.448 97.524 97.524 0 0 0-195.048 0 92.648 92.648 0 0 0 11.703 42.91A326.217 326.217 0 0 0 163.84 448.122v256H89.234a63.878 63.878 0 1 0 0 127.756h845.532a63.878 63.878 0 1 0 0-127.756zM512 1024c89.722 0 162.377-57.539 162.377-127.756H349.623C349.623 966.46 422.278 1024 512 1024z"/></svg>