<?xml version="1.0" standalone="no"?><!DOCTYPE svg PUBLIC "-//W3C//DTD SVG 1.1//EN" "http://www.w3.org/Graphics/SVG/1.1/DTD/svg11.dtd"><svg t="1557887667586" class="icon" style="" viewBox="0 0 1024 1024" version="1.1" xmlns="http://www.w3.org/2000/svg" p-id="2053" xmlns:xlink="http://www.w3.org/1999/xlink" width="128" height="128"><defs><style type="text/css"></style></defs><path d="M934.765714 704.121905h-74.605714V448.121905a326.217143 326.217143 0 0 0-262.339048-309.150476A92.647619 92.647619 0 0 0 609.52381 97.52381a97.52381 97.52381 0 0 0-195.04762 0 92.647619 92.647619 0 0 0 11.702858 42.910476 326.217143 326.217143 0 0 0-262.339048 307.687619v256H89.234286a63.878095 63.878095 0 1 0 0 127.75619h845.531428a63.878095 63.878095 0 1 0 0-127.75619zM512 1024c89.721905 0 162.377143-57.539048 162.377143-127.75619H349.622857C349.622857 966.460952 422.278095 1024 512 1024z" p-id="2054"></path></svg>