<?xml version="1.0" standalone="no"?><!DOCTYPE svg PUBLIC "-//W3C//DTD SVG 1.1//EN" "http://www.w3.org/Graphics/SVG/1.1/DTD/svg11.dtd"><svg t="1557114541023" class="icon" style="" viewBox="0 0 1024 1024" version="1.1" xmlns="http://www.w3.org/2000/svg" p-id="4716" xmlns:xlink="http://www.w3.org/1999/xlink" width="200" height="200"><defs><style type="text/css"></style></defs><path d="M494.933333 750.933333S819.2 570.026667 819.2 314.026667C819.2 139.946667 672.426667 0 494.933333 0S170.666667 139.946667 170.666667 314.026667C170.666667 576.853333 494.933333 750.933333 494.933333 750.933333z m0-549.546666c64.853333 0 119.466667 54.613333 119.466667 119.466666s-54.613333 119.466667-119.466667 119.466667S375.466667 389.12 375.466667 320.853333c0-64.853333 54.613333-119.466667 119.466666-119.466666zM273.066667 716.8c0-20.48-13.653333-34.133333-34.133334-34.133333H34.133333c-20.48 0-34.133333 13.653333-34.133333 34.133333s13.653333 34.133333 34.133333 34.133333h204.8c20.48 0 34.133333-13.653333 34.133334-34.133333z m648.533333-34.133333h-170.666667c-20.48 0-34.133333 13.653333-34.133333 34.133333s13.653333 34.133333 34.133333 34.133333h170.666667c20.48 0 34.133333 13.653333 34.133333 34.133334s-13.653333 34.133333-34.133333 34.133333H307.2c-58.026667 0-102.4 44.373333-102.4 102.4s44.373333 102.4 102.4 102.4h409.6c20.48 0 34.133333-13.653333 34.133333-34.133333s-13.653333-34.133333-34.133333-34.133334H307.2c-20.48 0-34.133333-13.653333-34.133333-34.133333s13.653333-34.133333 34.133333-34.133333h614.4c58.026667 0 102.4-44.373333 102.4-102.4s-44.373333-102.4-102.4-102.4z" p-id="4717"></path></svg>