<?xml version="1.0" standalone="no"?><!DOCTYPE svg PUBLIC "-//W3C//DTD SVG 1.1//EN" "http://www.w3.org/Graphics/SVG/1.1/DTD/svg11.dtd"><svg t="1558335152121" class="icon" style="" viewBox="0 0 1315 1024" version="1.1" xmlns="http://www.w3.org/2000/svg" p-id="3392" xmlns:xlink="http://www.w3.org/1999/xlink" width="164.375" height="128"><defs><style type="text/css"></style></defs><path d="M638.610133 985.6c-8.533333 0-19.2-4.266667-25.6-10.666667l-160-151.466666c-14.933333-14.933333-12.8-38.4 0-51.2 12.8-12.8 34.133333-12.8 49.066667-2.133334l130.133333 121.6L1191.143467 98.133333 109.543467 401.066667l110.933333 104.533333c14.933333 12.8 14.933333 36.266667 2.133333 51.2s-36.266667 14.933333-51.2 2.133333l-160-149.333333c-10.666667-8.533333-12.8-23.466667-10.666666-36.266667 4.266667-12.8 12.8-23.466667 25.6-25.6L1270.0768 2.133333c19.2-6.4 40.533333 6.4 44.8 25.6 2.133333 10.666667 0 21.333333-4.266667 29.866667L668.4768 968.533333c-6.4 8.533333-14.933333 14.933333-25.6 14.933334-2.133333 2.133333-4.266667 2.133333-4.266667 2.133333z" p-id="3393"></path><path d="M721.810133 392.533333c-10.666667-17.066667-32-23.466667-49.066666-14.933333l-187.733334 104.533333h-2.133333L239.6768 618.666667c-10.666667 6.4-19.2 19.2-19.2 32v332.8c0 19.2 17.066667 36.266667 36.266667 36.266666 10.666667 0 19.2-4.266667 25.6-10.666666l113.066666-113.066667c14.933333-14.933333 14.933333-38.4 0-51.2-14.933333-14.933333-38.4-14.933333-51.2 0L293.010133 896V676.266667l245.333334-138.666667 168.533333-93.866667c17.066667-10.666667 23.466667-34.133333 14.933333-51.2z" p-id="3394"></path></svg>