<svg class="icon" viewBox="0 0 1315 1024" xmlns="http://www.w3.org/2000/svg" width="164.375" height="128"><defs><style/></defs><path d="M638.61 985.6c-8.533 0-19.2-4.267-25.6-10.667l-160-151.466c-14.933-14.934-12.8-38.4 0-51.2 12.8-12.8 34.133-12.8 49.067-2.134l130.133 121.6 558.933-793.6-1081.6 302.934L220.477 505.6c14.933 12.8 14.933 36.267 2.133 51.2s-36.267 14.933-51.2 2.133L11.41 409.6C.743 401.067-1.39 386.133.743 373.333c4.267-12.8 12.8-23.466 25.6-25.6l1243.734-345.6c19.2-6.4 40.533 6.4 44.8 25.6 2.133 10.667 0 21.334-4.267 29.867L668.477 968.533c-6.4 8.534-14.934 14.934-25.6 14.934-2.134 2.133-4.267 2.133-4.267 2.133z"/><path d="M721.81 392.533c-10.667-17.066-32-23.466-49.067-14.933L485.01 482.133h-2.133l-243.2 136.534c-10.667 6.4-19.2 19.2-19.2 32v332.8c0 19.2 17.066 36.266 36.266 36.266 10.667 0 19.2-4.266 25.6-10.666L395.41 896c14.933-14.933 14.933-38.4 0-51.2-14.933-14.933-38.4-14.933-51.2 0l-51.2 51.2V676.267L538.343 537.6l168.534-93.867c17.066-10.666 23.466-34.133 14.933-51.2z"/></svg>