<?xml version="1.0" standalone="no"?><!DOCTYPE svg PUBLIC "-//W3C//DTD SVG 1.1//EN" "http://www.w3.org/Graphics/SVG/1.1/DTD/svg11.dtd"><svg t="1558405745919" class="icon" style="" viewBox="0 0 1024 1024" version="1.1" xmlns="http://www.w3.org/2000/svg" p-id="2093" xmlns:xlink="http://www.w3.org/1999/xlink" width="200" height="200"><defs><style type="text/css"></style></defs><path d="M900.13268 352.212595c-17.746424-30.688359-56.998953-41.124182-87.436598-23.438133-30.621843 17.622603-41.119065 56.748239-23.43404 87.373152 27.935627 48.373384 42.685769 103.682835 42.685769 159.868247 0 176.434783-143.558565 319.990278-319.991302 319.990278-176.43069 0-319.985162-143.555495-319.985162-319.990278 0-176.43069 143.554472-319.988232 319.985162-319.988232 0.099262 0 0.198524 0.00307 0.297786 0.00307 0.046049 38.789987 0.079819 68.711879 0.079819 72.371273 0 30.746688-0.312113 55.621563 32.496566 55.621563 16.626912 0 31.561251-6.498085 42.312257-16.876602l0.24969 0.125868c0 0 167.056051-156.99374 174.992925-163.492849 4.005276-3.375934 5.689662-7.625784 5.563794-11.749766-0.064469-3.998113-1.745785-7.875475-4.749231-10.624114C757.072472 175.655013 585.889369 15.531959 585.889369 15.531959l-0.310066 0.25276c-10.685513-9.621259-25.124565-15.748903-41.125205-15.748903-32.809702 0-32.43312 24.875898-32.43312 55.622587 0 3.524316 0.03377 33.492257 0.079819 72.375367-0.049119 0-0.097215-0.001023-0.146335-0.001023-247.057202 0-447.980045 200.991406-447.980045 447.983115 0 246.993756 200.923867 447.984139 447.980045 447.984139 246.994779 0 447.988232-200.990382 447.988232-447.984139C959.943717 497.39517 939.25627 420.021905 900.13268 352.212595z" p-id="2094"></path></svg>