<?xml version="1.0" standalone="no"?><!DOCTYPE svg PUBLIC "-//W3C//DTD SVG 1.1//EN" "http://www.w3.org/Graphics/SVG/1.1/DTD/svg11.dtd"><svg t="1558921784182" class="icon" style="" viewBox="0 0 1025 1024" version="1.1" xmlns="http://www.w3.org/2000/svg" p-id="3794" xmlns:xlink="http://www.w3.org/1999/xlink" width="128.125" height="128"><defs><style type="text/css"></style></defs><path d="M990.698667 944.768 66.581333 944.768 66.581333 45.930667c0-18.410667-14.890667-33.301333-33.301333-33.301333C14.890667 12.650667 0 27.541333 0 45.930667l0 932.117333c0 18.410667 14.890667 33.301333 33.301333 33.301333l957.418667 0c18.410667 0 33.301333-14.890667 33.301333-33.301333C1024 959.658667 1009.109333 944.768 990.698667 944.768z" p-id="3795"></path><path d="M165.12 467.392l199.744 0 0 399.488-199.744 0 0-399.488Z" p-id="3796"></path><path d="M697.770667 334.229333l199.744 0 0 532.629333-199.744 0 0-532.629333Z" p-id="3797"></path><path d="M431.445333 134.485333l199.744 0 0 732.394667-199.744 0 0-732.394667Z" p-id="3798"></path></svg>