<svg class="icon" viewBox="0 0 1024 1024" xmlns="http://www.w3.org/2000/svg" width="128" height="128"><defs><style/></defs><path d="M101.47 1017.173c-41.558-11.264-78.38-46.634-93.697-90.112C1.117 907.947.008 850.304.008 511.147.008 70.869-1.485 89.94 36.275 46.933 47.368 34.261 67.42 18.56 80.69 11.947L105.01 0h748.245l30.293 15.53c23.467 12.033 35.03 22.358 50.86 45.398l20.48 29.867 1.663 73.6c1.92 84.949-.939 94.89-27.179 94.89-28.288 0-33.365-12.586-33.365-82.56 0-65.45-5.419-80.554-37.504-104.362-14.336-10.667-17.152-10.752-376.32-10.752-353.92 0-362.24.213-379.776 10.368-10.624 6.144-22.613 19.712-29.44 33.194l-11.52 22.784v765.824l11.52 22.784c20.267 40.107 30.72 43.179 156.33 46.166 118.017 2.773 118.614 2.944 118.785 31.786.17 26.88-12.032 29.867-122.667 29.44-63.232-.213-108.8-2.688-123.947-6.826zm881.578 3.584c-4.267-1.45-41.259-36.096-82.261-76.842l-74.539-74.112-44.117 27.733c-25.6 16.128-63.019 34.005-89.259 42.667-41.557 13.61-51.2 14.805-119.467 14.677-69.845-.128-76.8-1.067-119.04-16.085-63.658-22.614-97.408-44.288-147.157-94.251-49.152-49.323-75.904-91.52-95.957-151.381-12.502-37.334-13.782-48.128-13.782-118.102s1.28-80.768 13.782-118.101c20.053-59.819 46.805-102.016 96-151.467 49.024-49.365 90.752-75.946 150.997-96.128 37.12-12.458 48.128-13.738 117.76-13.738s80.64 1.28 117.76 13.738c60.33 20.182 101.973 46.72 151.04 96.214 74.795 75.349 107.435 148.65 111.573 250.325 3.712 90.965-14.976 160.597-61.994 231.125l-25.259 37.888 77.397 78.251c50.646 51.115 77.483 82.005 77.483 89.045 0 5.974-6.059 15.616-13.483 21.462-14.208 11.221-15.232 11.52-27.477 7.082zm-340.48-132.48C749.96 865.75 837.981 788.096 878.344 680.32c12.843-34.39 14.464-45.355 14.763-102.699.298-57.472-1.152-68.565-14.038-106.154-25.984-75.947-81.664-141.355-151.466-178.176-48.384-25.515-76.758-33.75-128.555-37.419-62.379-4.437-109.397 4.864-164.267 32.427-54.186 27.178-93.184 61.568-126.549 111.616-37.248 55.893-49.664 99.626-49.664 175.146 0 54.102 1.707 66.731 14.379 103.595a317.568 317.568 0 0 0 159.061 181.547c68.907 34.133 137.856 43.349 210.56 28.074zm-83.328-67.029c-13.227-9.344-15.36-33.536-3.968-44.97 4.096-4.097 20.736-9.131 37.035-11.137 45.653-5.717 80.554-21.205 111.445-49.536 34.048-31.146 52.352-66.986 61.568-120.149 7.424-42.88 12.373-49.493 35.797-47.403 25.174 2.176 31.872 20.736 24.32 66.432-17.365 103.766-94.378 185.942-194.304 207.19-44.5 9.472-57.898 9.386-71.893-.427zM354.27 510.635c-14.38-13.355-14.08-20.054 2.133-52.139 24.874-49.28 96.298-111.744 127.914-111.872 15.403-.085 28.758 16.896 26.795 34.048-1.28 11.093-8.448 18.987-30.635 33.621-29.866 19.798-58.197 50.859-72.832 79.787-14.037 27.69-34.645 34.09-53.376 16.597z" fill-opacity=".65"/></svg>