<?xml version="1.0" standalone="no"?><!DOCTYPE svg PUBLIC "-//W3C//DTD SVG 1.1//EN" "http://www.w3.org/Graphics/SVG/1.1/DTD/svg11.dtd"><svg t="1558335112896" class="icon" style="" viewBox="0 0 1024 1024" version="1.1" xmlns="http://www.w3.org/2000/svg" p-id="2644" xmlns:xlink="http://www.w3.org/1999/xlink" width="128" height="128"><defs><style type="text/css"></style></defs><path d="M101.46944 1017.173333c-41.557333-11.264-78.378667-46.634667-93.696-90.112C1.11744 907.946667 0.008107 850.304 0.008107 511.146667 0.008107 70.869333-1.485227 89.941333 36.274773 46.933333c11.093333-12.672 31.146667-28.373333 44.416-34.986666l24.32-11.946667h748.245334l30.293333 15.530667c23.466667 12.032 35.029333 22.357333 50.858667 45.397333l20.48 29.866667 1.664 73.6c1.92 84.949333-0.938667 94.890667-27.178667 94.890666-28.288 0-33.365333-12.586667-33.365333-82.56 0-65.450667-5.418667-80.554667-37.504-104.362666-14.336-10.666667-17.152-10.752-376.32-10.752-353.92 0-362.24 0.213333-379.776 10.368-10.624 6.144-22.613333 19.712-29.44 33.194666l-11.52 22.784V893.781333l11.52 22.784c20.266667 40.106667 30.72 43.178667 156.330666 46.165334 118.016 2.773333 118.613333 2.944 118.784 31.786666 0.170667 26.88-12.032 29.866667-122.666666 29.44-63.232-0.213333-108.8-2.688-123.946667-6.826666z m881.578667 3.584c-4.266667-1.450667-41.258667-36.096-82.261334-76.842666l-74.538666-74.112-44.117334 27.733333c-25.6 16.128-63.018667 34.005333-89.258666 42.666667-41.557333 13.610667-51.2 14.805333-119.466667 14.677333-69.845333-0.128-76.8-1.066667-119.04-16.085333-63.658667-22.613333-97.408-44.288-147.157333-94.250667-49.152-49.322667-75.904-91.52-95.957334-151.381333-12.501333-37.333333-13.781333-48.128-13.781333-118.101334s1.28-80.768 13.781333-118.101333c20.053333-59.818667 46.805333-102.016 96-151.466667C356.274773 256.128 398.002773 229.546667 458.248107 209.365333c37.12-12.458667 48.128-13.738667 117.76-13.738666s80.64 1.28 117.76 13.738666c60.330667 20.181333 101.973333 46.72 151.04 96.213334 74.794667 75.349333 107.434667 148.650667 111.573333 250.325333 3.712 90.965333-14.976 160.597333-61.994667 231.125333l-25.258666 37.888 77.397333 78.250667C997.170773 954.282667 1024.008107 985.173333 1024.008107 992.213333c0 5.973333-6.058667 15.616-13.482667 21.461334-14.208 11.221333-15.232 11.52-27.477333 7.082666z m-340.48-132.48c107.392-22.528 195.413333-100.181333 235.776-207.957333 12.842667-34.389333 14.464-45.354667 14.762666-102.698667 0.298667-57.472-1.152-68.565333-14.037333-106.154666-25.984-75.946667-81.664-141.354667-151.466667-178.176-48.384-25.514667-76.757333-33.749333-128.554666-37.418667-62.378667-4.437333-109.397333 4.864-164.266667 32.426667-54.186667 27.178667-93.184 61.568-126.549333 111.616-37.248 55.893333-49.664 99.626667-49.664 175.146666 0 54.101333 1.706667 66.730667 14.378666 103.594667a317.568 317.568 0 0 0 159.061334 181.546667c68.906667 34.133333 137.856 43.349333 210.56 28.074666z m-83.328-67.029333c-13.226667-9.344-15.36-33.536-3.968-44.970667 4.096-4.096 20.736-9.130667 37.034666-11.136 45.653333-5.717333 80.554667-21.205333 111.445334-49.536 34.048-31.146667 52.352-66.986667 61.568-120.149333 7.424-42.88 12.373333-49.493333 35.797333-47.402667 25.173333 2.176 31.872 20.736 24.32 66.432-17.365333 103.765333-94.378667 185.941333-194.304 207.189334-44.501333 9.472-57.898667 9.386667-71.893333-0.426667z m-204.970667-310.613333c-14.378667-13.354667-14.08-20.053333 2.133333-52.138667 24.874667-49.28 96.298667-111.744 127.914667-111.872 15.402667-0.085333 28.757333 16.896 26.794667 34.048-1.28 11.093333-8.448 18.986667-30.634667 33.621333-29.866667 19.797333-58.197333 50.858667-72.832 79.786667-14.037333 27.690667-34.645333 34.090667-53.376 16.597333z" fill-opacity=".65" p-id="2645"></path></svg>