<svg class="icon" viewBox="0 0 1024 1024" xmlns="http://www.w3.org/2000/svg" width="128" height="128"><defs><style/></defs><path d="M825.606 647.538l-6.342 12.72 7.944 11.787 78.12 115.897 3.196-31.084L769.54 892.374l29.5-3.489-127.562-76.002-10.558-6.29-11.337 4.746a354.104 354.104 0 0 1-24.541 9.221l-13.23 4.42-2.896 13.644-27.92 131.552 23.85-19.319H408.272l23.667 18.521-34.097-137.705-3.041-12.281-11.793-4.584a354.214 354.214 0 0 1-21.818-9.335l-12.172-5.697-11.317 7.25-119.82 76.774 30.174 3.072-138.983-135.508 3.638 30.404 77.941-124.359 6.896-11.002-5.281-11.861a333.395 333.395 0 0 1-10-25.168l-4.591-13.084-13.593-2.742-134.88-27.204 19.56 23.9v-191.65L29.966 422.33l141.255-33.244 12.23-2.878 4.753-11.63a334.902 334.902 0 0 1 11.327-24.775l6.429-12.673-7.859-11.84-73.415-110.61-3.16 30.808 138.161-136.787-29.775 3.534 122.781 74.29 10.594 6.41 11.425-4.774a354.103 354.103 0 0 1 20.123-7.694l12.48-4.342 3.175-12.825L443.437 30.24l-23.666 18.52h196.556l-23.85-19.319 28.848 135.93 2.78 13.1 12.546 4.681a353.058 353.058 0 0 1 29.977 12.79l12.168 5.872 11.43-7.205 113.449-71.52-29.883-3.032 140.37 134.697-3.683-30.69-76.269 119.749-6.992 10.978 5.232 11.919a332.834 332.834 0 0 1 9.803 25.042l4.386 12.693 13.073 3.076 134.322 31.609-18.796-23.733v191.65l19.56-23.9-141.815 28.607-12.733 2.568-4.97 12a334.47 334.47 0 0 1-9.674 21.215zm32.198-11.884l4.82 23.9 141.816-28.606 19.56-3.946V396.088l-18.796-4.422-134.322-31.61-5.585 23.734 23.044-7.964a381.595 381.595 0 0 0-11.242-28.714l-22.325 9.8 20.565 13.097 76.269-119.748 10.734-16.854-14.418-13.836-140.37-134.697-13.756-13.2-16.127 10.167-113.45 71.52 13.002 20.624 10.596-21.958a401.82 401.82 0 0 0-34.12-14.559l-8.524 22.843 23.85-5.062-28.848-135.93L636.077 0H400.69l-4.586 18.52-32.947 133.06 23.666 5.86-8.01-23.028a402.863 402.863 0 0 0-22.897 8.756l9.398 22.496 12.621-20.86-122.781-74.288-16.265-9.842-13.51 13.375L87.22 210.836l-14.248 14.105 11.087 16.704 73.415 110.61 20.314-13.482-21.743-11.03a383.663 383.663 0 0 0-12.978 28.385l22.569 9.225-5.586-23.732-141.254 33.244L0 379.288V610.202l19.56 3.945 134.881 27.204 4.82-23.9-23.005 8.075a382.156 382.156 0 0 0 11.463 28.852l22.273-9.916-20.658-12.948-77.941 124.359-10.448 16.67 14.086 13.734 138.983 135.508 13.867 13.52 16.307-10.448 119.82-76.773-13.153-20.529-10.336 22.082a402.974 402.974 0 0 0 24.824 10.62l8.832-22.724-23.666 5.86 34.097 137.705 4.586 18.521h235.404l4.1-19.32 27.92-131.552-23.85-5.061 7.723 23.125a402.866 402.866 0 0 0 27.925-10.493l-9.415-22.49-12.48 20.946 127.563 76.001 16.09 9.587 13.41-13.075L942.565 791.77l14.571-14.208-11.374-16.875-78.12-115.898-20.217 13.628 21.82 10.879a383.23 383.23 0 0 0 11.083-24.311l-22.524-9.332z"/><path d="M731.429 499.81c0-114.455-92.784-207.239-207.239-207.239-114.454 0-207.238 92.784-207.238 207.239 0 114.454 92.784 207.238 207.238 207.238 29.315 0 57.816-6.105 84.063-17.765 12.306-5.467 17.85-19.874 12.383-32.18-5.467-12.306-19.874-17.85-32.18-12.383-20.044 8.905-41.804 13.566-64.266 13.566-87.524 0-158.476-70.952-158.476-158.476s70.952-158.477 158.476-158.477 158.477 70.953 158.477 158.477c0 11.564-1.235 22.952-3.66 34.037-2.876 13.155 5.456 26.15 18.61 29.027 13.154 2.877 26.15-5.455 29.027-18.609a207.916 207.916 0 0 0 4.785-44.455z"/></svg>