<?xml version="1.0" standalone="no"?><!DOCTYPE svg PUBLIC "-//W3C//DTD SVG 1.1//EN" "http://www.w3.org/Graphics/SVG/1.1/DTD/svg11.dtd"><svg t="1557114597168" class="icon" style="" viewBox="0 0 1024 1024" version="1.1" xmlns="http://www.w3.org/2000/svg" p-id="5261" xmlns:xlink="http://www.w3.org/1999/xlink" width="200" height="200"><defs><style type="text/css"></style></defs><path d="M864.98 918.59h-30.96c-5.46-112.74-30.87-197.67-67.86-261.39l-0.51-1.26c-38.82-66.63-90.15-110.13-144.21-136.62C675.5 492.35 726.83 449.33 765.65 382.76l0.51-1.32c38.22-66.33 64.47-155.97 68.43-276.03h30.39c20.7 0 37.02-16.26 37.02-36.72C902 48.26 885.68 32 864.98 32H186.05c-20.49 0-37.02 16.26-37.02 36.72 0 20.46 16.53 36.72 36.99 36.72h30.39c4.41 120.06 30.15 209.7 68.43 276.03l0.75 1.32c38.79 66.57 89.88 109.56 144.15 136.56-54.27 26.49-105.33 69.99-144.15 136.62l-0.72 1.23c-36.66 63.72-62.16 148.65-67.62 261.39h-31.2c-20.49 0-36.99 16.23-36.99 36.15-0.03 20.97 16.5 37.26 36.99 37.26h678.93c20.7 0 37.02-16.29 37.02-37.26 0-19.92-16.32-36.15-37.02-36.15M323.12 679.46l0.57-1.56c44.55-76.56 93.21-117.39 157.77-137.37l2.52-1.56h0.57c1.32-0.54 2.58-1.05 3.72-2.1l0.45-0.48 1.59-1.11 0.24-0.51 1.62-1.56 0.27-0.54c1.05-1.08 1.56-2.37 2.64-3.69v-0.48a9.4621875 9.4621875 0 0 0 1.59-5.28l0.27-0.51v-1.62l0.24-1.29v-1.02l-0.24-1.32v-1.05l-0.27-1.05c0-1.83-0.51-3.66-1.59-5.22v-0.54c-1.08-1.53-1.59-2.64-2.64-3.66l-0.27-0.81-1.62-1.29h-0.24l-1.59-1.56-0.45-0.54c-1.14-0.81-2.4-1.59-3.72-2.4l-0.57-0.27-2.52-1.02c-64.53-19.38-113.19-60.81-157.77-137.88l-0.57-0.54C288.47 299.03 264.95 216.5 260.75 105.35h529.56c-3.72 111.15-27.33 193.71-62.4 254.28l-0.54 0.54c-44.37 77.04-93.21 118.47-157.2 137.88l-3.15 1.02-0.54 0.27c-1.29 0.81-2.37 1.59-3.72 2.4l-0.51 0.54-1.59 1.56-1.8 1.29-0.24 0.81c-0.84 1.02-1.59 2.1-2.13 3.66l-0.54 0.54c-0.51 1.59-1.05 3.42-1.62 5.22v7.86c0.57 1.83 1.11 3.66 1.62 5.28l0.54 0.48c0.57 1.32 1.29 2.61 2.13 3.69l0.24 0.54 1.8 1.56v0.51l1.59 1.11 0.51 0.48c1.08 1.05 2.43 1.59 3.72 2.1h0.54l3.15 1.56c63.99 19.98 112.86 60.81 157.2 137.37l0.54 1.56c18.57 31.53 33.48 69.78 44.55 114.33 2.34 12.72 10.23 40.65 12.39 76.8-35.22-31.2-133.92-54.06-251.91-55.83V467.45a31.531875 31.531875 0 0 0 3.54-1.32l0.27-0.54 6.3-2.37 0.57-0.27h0.54c42.75-13.35 77.31-34.56 105.6-62.4 30.51-29.88 53.52-67.08 69.21-108.03 4.26-11.52-0.93-24.12-12.51-28.29-11.52-4.71-24.39 1.05-28.89 12.6-13.8 34.86-33 66.84-59.01 92.28-23.1 22.56-51.57 40.35-87.24 51.36l-1.05 0.51-2.58 0.54-2.16 1.05-2.1-1.05-1.56-0.54-2.07-0.51c-35.07-11.04-64.23-28.8-87.03-51.36-26.22-25.44-45.33-57.42-59.22-92.28-4.2-11.55-17.34-17.34-28.29-12.6-11.55 4.17-16.83 16.77-12.66 28.29 15.78 40.92 38.34 78.15 69.21 108.03 27.81 27.84 62.94 49.05 105.39 62.4h0.27l0.78 0.27 5.76 2.37 1.59 0.54c0.81 0.39 1.68 0.81 2.64 1.23v347.25c-110.55 0-206.16 18.51-251.88 45.45 1.59-17.76 5.25-37.92 12.21-66.27 10.98-45.06 26.16-82.8 44.55-114.33" p-id="5262"></path></svg>