<svg class="icon" viewBox="0 0 1024 1024" xmlns="http://www.w3.org/2000/svg" width="128" height="128"><defs><style/></defs><path d="M891.392 91.136H775.68V5.12h-57.856V89.6h56.832v160.768H716.8V91.136H313.856v159.232H256V91.136H132.608c-62.464 0-112.128 50.176-112.128 113.152v702.464c0 61.952 50.176 112.128 112.128 112.128h759.296c61.952 0 112.128-50.176 112.128-112.128V203.264c-.512-61.952-50.176-112.128-112.64-112.128zM461.824 733.184l-31.232 31.744-162.816-162.304 31.232-31.744L430.08 701.44l295.424-295.424 31.744 31.744-295.424 295.424z"/><path d="M256 5.12h57.856V89.6H256V5.12z"/></svg>