<?xml version="1.0" standalone="no"?><!DOCTYPE svg PUBLIC "-//W3C//DTD SVG 1.1//EN" "http://www.w3.org/Graphics/SVG/1.1/DTD/svg11.dtd"><svg t="1557388920939" class="icon" style="" viewBox="0 0 1024 1024" version="1.1" xmlns="http://www.w3.org/2000/svg" p-id="3240" xmlns:xlink="http://www.w3.org/1999/xlink" width="128" height="128"><defs><style type="text/css"></style></defs><path d="M37.298973 205.897502c6.293019 0 12.587044-2.297707 17.549971-7.001864L218.590269 44.346147c10.246041-9.644932 10.740421-25.8195 1.0532-36.086686-9.666077-10.246041-25.883941-10.761565-36.086686-1.031048L19.771154 161.777904c-10.267186 9.666077-10.740421 25.840645-1.052192 36.129982 5.047504 5.284122 11.834903 7.990623 18.580011 7.990623zM986.425141 205.897502a25.375465 25.375465 0 0 1-17.549971-7.001864L805.131831 44.346147c-10.246041-9.644932-10.739414-25.8195-1.052193-36.086686 9.666077-10.246041 25.883941-10.761565 36.086686-1.031048L1003.95296 161.777904c10.267186 9.666077 10.739414 25.840645 1.052192 36.129982-5.047504 5.284122-11.83591 7.990623-18.580011 7.990623zM514.029876 43.872912c-270.542411 0-489.898918 219.3555-489.898918 489.876767 0 270.672299 219.334356 489.920063 489.898918 489.920063 112.340956 0 218.926568-37.955461 305.040236-106.541309 10.310482-8.1628 12.028224-23.220735 3.779839-33.552362s-23.263025-12.029231-33.573507-3.780846c-77.650816 61.841746-173.773908 96.102954-275.225423 96.102954-244.165097 0-442.083052-197.961251-442.083052-442.1485 0-244.121801 197.89681-442.061908 442.083052-442.061907 244.187249 0 442.105204 197.940106 442.105203 442.061907 0 83.730376-23.284169 163.958812-66.588193 233.490124-6.938431 11.169353-3.523084 25.947375 7.668421 32.929102 11.190498 6.959575 25.905086 3.479788 32.90695-7.647277 47.987036-77.049707 73.827681-166.019902 73.827682-258.771949-0.021145-270.521266-219.3555-489.876767-489.941208-489.876767z" p-id="3241"></path><path d="M816.4059 510.056716c-0.472228 0-0.966608 0.043296-1.459981 0.043296-0.215473 0-0.429939-0.021145-0.579964-0.021145H530.483351V226.19727c0-0.451084-0.021145-0.902167-0.06444-1.35325 0.043296-0.451084 0.064441-0.945463 0.06444-1.396547 0-14.52026-11.620437-26.269577-25.969526-26.269577-14.370234 0-25.990671 11.749318-25.990671 26.269577 0 0.451084 0.043296 0.923312 0.064441 1.374395-0.043296 0.451084-0.085585 0.902167-0.085585 1.375402v283.602691c-14.477971 0-26.227288 11.577141-26.24944 25.905085-0.021145 12.973687 9.516051 23.714108 22.038655 25.711764a12.898171 12.898171 0 0 0 4.081904 0.66555h0.085585v0.128881c0 0.579965 0.064441 1.267666 0.151032 1.782183 1.030041 13.597955 12.200401 24.316224 25.92623 24.316224 14.348083 0 25.947375-11.770462 25.969526-26.227288h283.860453c0.515524 0 0.987752 0 1.39554-0.043296h0.537675c14.52026 0.043296 26.291729-11.577141 26.356169-25.882934-0.022151-14.392385-11.728173-26.056118-26.249439-26.098407z" p-id="3242"></path></svg>