<svg class="icon" viewBox="0 0 1024 1024" xmlns="http://www.w3.org/2000/svg" width="128" height="128"><defs><style/></defs><path d="M37.299 205.898a25.38 25.38 0 0 0 17.55-7.002L218.59 44.346c10.246-9.645 10.74-25.82 1.053-36.087-9.666-10.246-25.883-10.761-36.086-1.03L19.77 161.777c-10.267 9.666-10.74 25.84-1.052 36.13 5.047 5.284 11.835 7.99 18.58 7.99zm949.126 0a25.375 25.375 0 0 1-17.55-7.002L805.132 44.346c-10.246-9.645-10.74-25.82-1.052-36.087 9.666-10.246 25.884-10.761 36.086-1.03l163.787 154.549c10.267 9.666 10.74 25.84 1.052 36.13-5.047 5.284-11.836 7.99-18.58 7.99zM514.03 43.873C243.487 43.873 24.13 263.228 24.13 533.75c0 270.672 219.334 489.92 489.899 489.92 112.34 0 218.926-37.956 305.04-106.542 10.31-8.162 12.028-23.22 3.78-33.552s-23.263-12.03-33.574-3.78c-77.65 61.841-173.773 96.102-275.225 96.102-244.165 0-442.083-197.961-442.083-442.148 0-244.122 197.897-442.062 442.083-442.062 244.187 0 442.105 197.94 442.105 442.062 0 83.73-23.284 163.958-66.588 233.49-6.938 11.17-3.523 25.947 7.668 32.929 11.19 6.96 25.906 3.48 32.907-7.647 47.987-77.05 73.828-166.02 73.828-258.772-.021-270.522-219.355-489.877-489.941-489.877z"/><path d="M816.406 510.057c-.472 0-.967.043-1.46.043-.216 0-.43-.021-.58-.021H530.483V226.197c0-.45-.02-.902-.064-1.353.043-.451.064-.945.064-1.397 0-14.52-11.62-26.27-25.97-26.27-14.37 0-25.99 11.75-25.99 26.27 0 .452.043.924.065 1.375-.044.451-.086.902-.086 1.375V509.8c-14.478 0-26.227 11.577-26.25 25.905-.02 12.974 9.517 23.714 22.04 25.712a12.898 12.898 0 0 0 4.081.665h.086v.13c0 .58.064 1.267.15 1.781 1.03 13.598 12.201 24.317 25.927 24.317 14.348 0 25.947-11.77 25.97-26.228h283.86c.515 0 .988 0 1.395-.043h.538c14.52.043 26.292-11.577 26.356-25.883-.022-14.392-11.728-26.056-26.25-26.098z"/></svg>