<?xml version="1.0" standalone="no"?><!DOCTYPE svg PUBLIC "-//W3C//DTD SVG 1.1//EN" "http://www.w3.org/Graphics/SVG/1.1/DTD/svg11.dtd"><svg t="1557887704999" class="icon" style="" viewBox="0 0 1024 1024" version="1.1" xmlns="http://www.w3.org/2000/svg" p-id="2790" xmlns:xlink="http://www.w3.org/1999/xlink" width="128" height="128"><defs><style type="text/css"></style></defs><path d="M891.392 91.136h-115.712V5.12h-57.856v84.48h56.832v160.768H716.8V91.136H313.856v159.232H256V91.136H132.608C70.144 91.136 20.48 141.312 20.48 204.288v702.464c0 61.952 50.176 112.128 112.128 112.128h759.296c61.952 0 112.128-50.176 112.128-112.128V203.264c-0.512-61.952-50.176-112.128-112.64-112.128zM461.824 733.184l-31.232 31.744-162.816-162.304 31.232-31.744L430.08 701.44l295.424-295.424 31.744 31.744-295.424 295.424z" p-id="2791"></path><path d="M256 5.12h57.856v84.48H256V5.12z" p-id="2792"></path></svg>