<?xml version="1.0" standalone="no"?><!DOCTYPE svg PUBLIC "-//W3C//DTD SVG 1.1//EN" "http://www.w3.org/Graphics/SVG/1.1/DTD/svg11.dtd"><svg t="1557114630168" class="icon" style="" viewBox="0 0 1024 1024" version="1.1" xmlns="http://www.w3.org/2000/svg" p-id="5479" xmlns:xlink="http://www.w3.org/1999/xlink" width="200" height="200"><defs><style type="text/css"></style></defs><path d="M631.99734969 751.9943c0 33.75973312-11.59990781 62.19950719-34.67972531 85.319325C574.1978075 860.39344156 545.71803312 871.99335031 511.99830031 871.99335031c-33.75973312 0-62.19950719-11.59990781-85.319325-34.67972531C403.59915781 814.19380719 391.99925 785.71403281 391.99925 751.9943c0-21.23983219 5.31995813-41.23967344 15.91987406-59.99952469A108.39914156 108.39914156 0 0 1 451.99877469 648.87511625V451.99667469c0-16.23987187 5.91995344-30.31975969 17.79985969-42.19966594A57.67954312 57.67954312 0 0 1 511.99830031 391.99715c16.23987187 0 30.31975969 5.91995344 42.19966594 17.79985875 11.87990625 11.87990625 17.79985875 25.95979406 17.79985875 42.19966594v196.87844156c18.75985125 9.99992062 33.43973531 24.39980719 44.07965062 43.11965906 10.59991594 18.75985125 15.91987406 38.75969344 15.91987407 59.99952469z m59.99952562-159.35873813C731.99655875 638.87519562 751.9964 691.99477531 751.9964 751.9943a237.99811594 237.99811594 0 0 1-31.8797475 120.9190425 233.47815188 233.47815188 0 0 1-87.19930969 87.19930969A237.99811594 237.99811594 0 0 1 511.99830031 991.99239969h-1.87998562a229.35818438 229.35818438 0 0 1-119.03905782-32.79973969 240.598095 240.598095 0 0 1-87.19930968-88.11930281A237.99811594 237.99811594 0 0 1 272.00019969 750.11431531c0-59.99952469 19.99984125-112.47910969 59.99952562-157.47875343V211.998575c0-49.99960406 17.47986187-92.4792675 52.51958438-127.51899C419.51903187 49.51986125 461.99869625 32 511.99830031 32c49.99960406 0 92.4792675 17.47986187 127.51899 52.51958438 34.99972313 34.99972313 52.479585 77.47938656 52.479585 127.47899062v380.63698687zM661.9971125 751.9943c0-26.2397925-6.23995031-49.99960406-18.75985125-71.23943625-6.23995031-12.51990094-17.47986187-27.51978187-33.75973312-44.99964375l-7.47994032-9.39992531V211.998575a86.79931312 86.79931312 0 0 0-26.2397925-63.759495A86.79931312 86.79931312 0 0 0 511.99830031 121.9992875a86.79931312 86.79931312 0 0 0-63.75949594 26.2397925A86.79931312 86.79931312 0 0 0 421.99901281 211.998575v414.39671906l-7.51994062 9.35992594c-16.23987187 17.47986187-27.4797825 32.47974281-33.71973281 44.99964375A137.87890875 137.87890875 0 0 0 361.99948719 751.9943c0 39.99968344 14.67988406 74.99940656 44.07965156 104.99916844 29.35976719 29.99976281 64.03949344 44.99964375 104.03917594 44.99964375H511.99830031c41.23967344 0 76.55939344-14.67988406 105.91916157-44.07965063 29.3997675-29.35976719 44.07965062-64.67948813 44.07965062-105.91916156z" p-id="5480"></path></svg>