<?xml version="1.0" standalone="no"?><!DOCTYPE svg PUBLIC "-//W3C//DTD SVG 1.1//EN" "http://www.w3.org/Graphics/SVG/1.1/DTD/svg11.dtd"><svg t="1559700261773" class="icon" style="" viewBox="0 0 1024 1024" version="1.1" xmlns="http://www.w3.org/2000/svg" p-id="16756" xmlns:xlink="http://www.w3.org/1999/xlink" width="128" height="128"><defs><style type="text/css"></style></defs><path d="M343.04 0H40.96A40.886857 40.886857 0 0 0 0 40.96v942.08a40.886857 40.886857 0 0 0 40.96 40.96h302.08a40.96 40.96 0 0 0 40.96-40.96V40.96A40.886857 40.886857 0 0 0 343.04 0z m669.037714 11.995429A40.886857 40.886857 0 0 0 983.04 0H680.96a40.886857 40.886857 0 0 0-40.96 40.96v942.08a40.886857 40.886857 0 0 0 40.96 40.96h302.08a40.96 40.96 0 0 0 40.96-40.96V40.96a40.740571 40.740571 0 0 0-11.922286-28.964571z" p-id="16757"></path></svg>