<?xml version="1.0" standalone="no"?><!DOCTYPE svg PUBLIC "-//W3C//DTD SVG 1.1//EN" "http://www.w3.org/Graphics/SVG/1.1/DTD/svg11.dtd"><svg t="1558594093122" class="icon" style="" viewBox="0 0 1024 1024" version="1.1" xmlns="http://www.w3.org/2000/svg" p-id="1113" xmlns:xlink="http://www.w3.org/1999/xlink" width="128" height="128"><defs><style type="text/css"></style></defs><path d="M954.398203 407.230346L772.622941 589.837604l156.255365 156.367365a47.999805 47.999805 0 0 1 14.99194 35.199857 50.159796 50.159796 0 0 1-15.263938 36.207852 49.903797 49.903797 0 0 1-70.479714-0.143999L223.345173 182.399259a53.567782 53.567782 0 0 1-15.535937-36.207853A50.383795 50.383795 0 0 1 258.609029 95.99961a46.87981 46.87981 0 0 1 35.423856 14.83194l142.207423 142.303422L618.415568 70.175715a236.41504 236.41504 0 0 1 335.726636-0.255999 239.167028 239.167028 0 0 1 0.255999 337.31063zM882.062497 140.31943a136.303446 136.303446 0 0 0-43.199825-29.023882 145.023411 145.023411 0 0 0-52.719786-9.93596 135.37545 135.37545 0 0 0-96.607607 40.127837L507.312019 324.238683l61.343751 61.359751 48.847801-49.055801a47.375808 47.375808 0 0 1 34.927858-14.975939 50.287796 50.287796 0 0 1 35.727855 85.615652l-48.895801 49.1038 62.207747 62.271747 182.12726-182.399259a139.391434 139.391434 0 0 0-1.535993-195.839204zM371.200572 705.181135a49.887797 49.887797 0 0 1-35.199857-14.71994 50.511795 50.511795 0 0 1-14.623941-35.999854 46.991809 46.991809 0 0 1 14.687941-35.359856l95.551612-95.90361 70.703712 70.703712-95.311612 95.695612a52.799786 52.799786 0 0 1-35.807855 15.583936z m-77.055687-238.847029a47.999805 47.999805 0 0 1 14.975939 35.199857 50.031797 50.031797 0 0 1-15.167938 36.063853l-149.039395 153.503376a135.999448 135.999448 0 0 0-40.511835 97.023606 137.80744 137.80744 0 0 0 137.311442 137.99944 135.839448 135.839448 0 0 0 97.375604-40.127837l149.887392-151.183386A50.015797 50.015797 0 0 1 574.399747 769.116875a51.199792 51.199792 0 0 1-14.623941 36.575852l-149.487393 151.327385A235.199045 235.199045 0 0 1 244.641086 1023.99584h-5.823976a232.175057 232.175057 0 0 1-165.759327-70.079715A237.871034 237.871034 0 0 1 0.00208 785.596809a241.087021 241.087021 0 0 1 73.071703-168.703315l150.07939-150.607388a52.559786 52.559786 0 0 1 35.823855-14.703941 49.3438 49.3438 0 0 1 35.167857 14.751941z" p-id="1114"></path></svg>