<svg class="icon" viewBox="0 0 1024 1024" xmlns="http://www.w3.org/2000/svg" width="128" height="128"><defs><style/></defs><path d="M147.05 49.951h201.49c41.689 0 75.392 33.505 75.392 75.108v224.419c0 41.5-33.765 75.107-75.392 75.107H147.05c-41.69 0-75.392-33.504-75.392-75.107v-224.42c0-41.499 33.765-75.107 75.392-75.107zM21.333 349.478c0 69.173 56.217 125.059 125.717 125.059h201.49c69.453 0 125.716-56.004 125.716-125.06V125.06C474.256 55.886 418.04 0 348.54 0H147.05C77.597 0 21.333 56.004 21.333 125.059v224.419zM675.46 49.951h201.49c41.69 0 75.392 33.505 75.392 75.108v224.419c0 41.5-33.765 75.107-75.392 75.107H675.46c-41.689 0-75.392-33.504-75.392-75.107v-224.42c0-41.499 33.765-75.107 75.392-75.107zM549.744 349.478c0 69.173 56.216 125.059 125.716 125.059h201.49c69.453 0 125.717-56.004 125.717-125.06V125.06C1002.667 55.886 946.45 0 876.95 0H675.46c-69.453 0-125.716 56.004-125.716 125.059v224.419zM147.05 599.415h201.49c41.689 0 75.392 33.504 75.392 75.107v224.42c0 41.499-33.765 75.107-75.392 75.107H147.05c-41.69 0-75.392-33.505-75.392-75.108V674.522c0-41.5 33.765-75.107 75.392-75.107zM21.333 898.94C21.333 968.114 77.55 1024 147.05 1024h201.49c69.453 0 125.716-56.004 125.716-125.059V674.522c0-69.173-56.216-125.059-125.716-125.059H147.05c-69.453 0-125.717 56.004-125.717 125.06V898.94zM874.687 974.049H675.396c-41.65 0-75.328-33.501-75.328-75.108V674.522c0-41.5 33.765-75.107 75.392-75.107h201.49c41.692 0 75.392 33.469 75.392 75.006V899.066c0 13.794 11.265 24.975 25.162 24.975 13.897 0 25.163-11.181 25.163-24.975V674.42c0-69.118-56.224-124.958-125.717-124.958H675.46c-69.453 0-125.716 56.004-125.716 125.06V898.94c0 69.17 56.183 125.059 125.652 125.059h200.976c14.475 0 25.74-11.182 25.74-24.976 0-13.793-11.265-24.975-25.162-24.975h-2.263z"/></svg>